<svg id="visual" viewBox="0 0 900 600" width="900" height="600" xmlns="http://www.w3.org/2000/svg" xmlns:xlink="http://www.w3.org/1999/xlink" version="1.1"><g transform="translate(5.485280189561053 560.9159361013465)"><path d="M217.1 -367.5C277.9 -340.9 321.2 -275.7 362.3 -208C403.4 -140.3 442.2 -70.2 452.4 5.9C462.7 82 444.4 164 408 239.8C371.6 315.6 317 385.1 246 424.4C175 463.8 87.5 472.9 13.6 449.4C-60.3 425.8 -120.7 369.7 -194.4 331.9C-268.2 294.2 -355.4 274.8 -408.5 222.6C-461.7 170.3 -480.8 85.2 -454.5 15.2C-428.1 -54.7 -356.1 -109.4 -308.4 -171C-260.6 -232.6 -237.1 -301.2 -189.7 -335.5C-142.3 -369.9 -71.2 -369.9 3.5 -376C78.2 -382.1 156.3 -394.1 217.1 -367.5" fill="#F6B400"></path></g></svg>